<?xml version="1.0" encoding="UTF-8" standalone="no"?>
<svg
   xmlns:dc="http://purl.org/dc/elements/1.1/"
   xmlns:cc="http://creativecommons.org/ns#"
   xmlns:rdf="http://www.w3.org/1999/02/22-rdf-syntax-ns#"
   xmlns:svg="http://www.w3.org/2000/svg"
   xmlns="http://www.w3.org/2000/svg"
   xmlns:sodipodi="http://sodipodi.sourceforge.net/DTD/sodipodi-0.dtd"
   xmlns:inkscape="http://www.inkscape.org/namespaces/inkscape"
   version="1.0"
   width="24"
   height="24"
   viewBox="0 0 19.2 19.2"
   preserveAspectRatio="xMidYMid meet"
   id="svg2"
   inkscape:version="0.48.5 r10040"
   sodipodi:docname="logo.svg">
  <defs
     id="defs16" />
  <sodipodi:namedview
     pagecolor="#ffffff"
     bordercolor="#666666"
     borderopacity="1"
     objecttolerance="10"
     gridtolerance="10"
     guidetolerance="10"
     inkscape:pageopacity="0"
     inkscape:pageshadow="2"
     inkscape:window-width="1028"
     inkscape:window-height="676"
     id="namedview14"
     showgrid="false"
     inkscape:zoom="12.86764"
     inkscape:cx="21.712322"
     inkscape:cy="14.295647"
     inkscape:window-x="0"
     inkscape:window-y="0"
     inkscape:window-maximized="0"
     inkscape:current-layer="svg2" />
  <metadata
     id="metadata4">
Created by potrace 1.11, written by Peter Selinger 2001-2013
<rdf:RDF>
  <cc:Work
     rdf:about="">
    <dc:format>image/svg+xml</dc:format>
    <dc:type
       rdf:resource="http://purl.org/dc/dcmitype/StillImage" />
    <dc:title></dc:title>
  </cc:Work>
</rdf:RDF>
</metadata>
  <g
     transform="matrix(0.02651402,0,0,-0.0242779,-2.4655903,19.665961)"
     id="g6"
     style="fill:#000000;stroke:none">
    <path
       d="m 310,795 c -25,-8 -70,-31 -100,-52 -46,-32 -56,-44 -58,-72 l -3,-33 48,40 C 298,764 407,788 528,751 736,688 830,438 722,236 642,88 448,26 291,100 c -35,17 -81,44 -102,61 l -39,31 0,-25 C 150,112 292,33 408,23 527,13 653,65 736,158 c 13,15 39,56 56,92 31,60 33,72 33,165 0,97 -2,104 -38,177 -43,88 -99,143 -186,185 -46,22 -72,27 -151,30 -63,2 -110,-2 -140,-12 z"
       id="path8"
       inkscape:connector-curvature="0" />
    <path
       d="M 319,726 C 102,649 28,383 175,205 245,119 383,75 503,100 c 57,11 141,60 161,92 19,32 -2,30 -47,-5 -84,-64 -193,-73 -300,-24 -106,49 -161,134 -161,252 -1,161 105,272 270,283 84,5 130,-7 197,-54 40,-29 47,-31 47,-16 0,23 -73,77 -131,97 -51,18 -171,19 -220,1 z"
       id="path10"
       inkscape:connector-curvature="0" />
    <path
       d="m 253,598 -21,-23 47,-195 47,-195 39,70 c 65,119 86,155 90,155 3,0 20,-30 39,-67 19,-38 45,-88 59,-112 l 25,-43 10,33 c 6,19 27,103 46,186 35,145 36,154 20,178 -9,14 -20,25 -24,25 -5,0 -18,-44 -30,-97 -36,-162 -28,-159 -91,-44 l -56,102 -53,-95 c -30,-52 -57,-93 -61,-91 -3,3 -17,56 -30,120 -13,63 -26,115 -29,115 -4,0 -16,-10 -27,-22 z"
       id="path12"
       inkscape:connector-curvature="0" />
  </g>
</svg>
