<svg xmlns="http://www.w3.org/2000/svg" style="display: none;">
    <symbol id="logo" viewBox="0 0 19.2 19.2">
      <g><path d="M5.754.365c-.663.194-1.856.753-2.652 1.262-1.22.777-1.484 1.07-1.537 1.748l-.08.802 1.273-.97c2.678-2.09 5.568-2.672 8.776-1.774 5.515 1.53 8.007 7.6 5.144 12.503-2.122 3.594-7.265 5.1-11.428 3.302-.928-.413-2.148-1.068-2.704-1.48l-1.034-.753v.607c0 1.335 3.765 3.253 6.84 3.496 3.155.242 6.496-1.02 8.697-3.278.343-.364 1.033-1.36 1.484-2.234.82-1.456.874-1.748.874-4.005 0-2.354-.053-2.524-1.007-4.297-1.14-2.136-2.624-3.47-4.93-4.49-1.22-.535-1.91-.656-4.004-.73-1.67-.048-2.917.05-3.712.292z"/><path d="M5.992 2.04C.24 3.91-1.723 10.368 2.174 14.69c1.856 2.087 5.515 3.155 8.697 2.548 1.512-.267 3.74-1.457 4.27-2.233.503-.777-.053-.73-1.246.12-2.228 1.555-5.118 1.773-7.955.584-2.81-1.19-4.27-3.255-4.27-6.12-.026-3.908 2.785-6.603 7.16-6.87 2.227-.12 3.446.17 5.223 1.31 1.06.705 1.246.754 1.246.39 0-.56-1.937-1.87-3.475-2.356-1.352-.437-4.533-.46-5.833-.024z"/><path d="M4.242 5.148l-.556.558 1.246 4.734 1.246 4.735 1.034-1.7c1.723-2.89 2.28-3.763 2.386-3.763.08 0 .53.728 1.034 1.627.504.92 1.193 2.135 1.565 2.718l.663 1.044.265-.8c.16-.463.716-2.502 1.22-4.517.927-3.52.954-3.74.53-4.322-.24-.34-.53-.607-.637-.607-.132 0-.477 1.07-.795 2.355-.955 3.934-.743 3.862-2.413 1.07L9.545 5.803 8.14 8.11c-.795 1.262-1.51 2.258-1.617 2.21-.08-.074-.45-1.36-.796-2.914-.344-1.53-.69-2.792-.77-2.792-.105 0-.423.242-.715.534z"/></g>
    </symbol>
</svg>